# xmcd
#
# Track frame offsets:
#	150
#	15536
#	27764
#	45822
#	62086
#	75501
#	91201
#	105670
#	125041
#	141822
#	156477
#	171659
#
# Disc length: 2471 seconds
#
# Revision: 1
# Processed by: cddbd v1.5.2PL0 Copyright (c) Steve Scherf et al.
# Submitted via: audiograbber 1.83.01
#
DISCID=9509a50c
DTITLE=Rodney Atkins - Caught Up In The Country
DYEAR=2019
DGENRE=Country
TTITLE0=Burn Something
TTITLE1=Caught Up In The Country
TTITLE2=Figure Out You (Riddle)
TTITLE3=Thank God For You
TTITLE4=So Good
TTITLE5=What Lonely Looks Like
TTITLE6=My Life
TTITLE7=Cover Me Up
TTITLE8=All My Friends Are Drunk
TTITLE9=Young Man
TTITLE10=Everybody's Got Something
TTITLE11=Waiting On A Good Day
EXTD=
EXTT0=
EXTT1=
EXTT2=
EXTT3=
EXTT4=
EXTT5=
EXTT6=
EXTT7=
EXTT8=
EXTT9=
EXTT10=
EXTT11=
PLAYORDER=
